<svg xmlns="http://www.w3.org/2000/svg" viewBox="0 0 204.10794 29.0904"><title>logo_gamemind_blue</title><path d="M0,25.18868V6.07492C0,3.47378,3.01,2.49814,5.29772,2.24477V3.36519c-1.80567.25255-3.43118,1.048-3.43118,2.70974V25.18868C1.92659,26.52545,3.191,27.97081,6.502,27.97081c3.372,0,4.63633-1.44536,4.63633-2.78213V16.98626h-3.372v-1.1196H13.065v9.322c0,1.33677-1.38531,3.90172-6.56292,3.90172C1.38448,29.0904,0,26.52545,0,25.18868Z" style="fill:#1385bd"/><path d="M77.78851,6.14732v22.582H75.922V6.14732c-.06005-1.373-1.26438-2.78213-4.63551-2.78213-3.3119,0-4.57628,1.44536-4.57628,2.78213v22.582H64.78358V6.14732c0-1.373-1.26356-2.78213-4.57546-2.78213-3.37113,0-4.57546,1.44536-4.63551,2.78213v22.582H53.70608V6.14732c0-1.373,1.32443-3.90255,6.502-3.90255A8.65832,8.65832,0,0,1,64.84446,3.329l.90325.57831.90242-.57831a8.65832,8.65832,0,0,1,4.63633-1.08422C76.404,2.24477,77.78851,4.77435,77.78851,6.14732Z" style="fill:#1385bd"/><path d="M91.63827,2.281h5.23767V3.40138H93.50481V15.5771h3.37113v1.12042H93.50481v8.12921c.06005,1.12042,1.02335,2.3848,3.37113,2.71056v1.15579c-4.03334-.39733-5.23767-2.60115-5.23767-3.83015Z" style="fill:#1385bd"/><path d="M134.80648,6.14732v22.582h-1.86654V6.14732c-.06005-1.373-1.26438-2.78213-4.63551-2.78213-3.31192,0-4.57628,1.44536-4.57628,2.78213v22.582h-1.92659V6.14732c0-1.373-1.26356-2.78213-4.57546-2.78213-3.37113,0-4.57546,1.44536-4.63551,2.78213v22.582h-1.86654V6.14732c0-1.373,1.32443-3.90255,6.502-3.90255A8.65832,8.65832,0,0,1,121.86243,3.329l.90325.57831.90242-.57831a8.65832,8.65832,0,0,1,4.63633-1.08422C133.422,2.24477,134.80648,4.77435,134.80648,6.14732Z" style="fill:#1385bd"/><path d="M148.65624,10.66848h1.86654V28.72927h-1.86654V10.66848Z" style="fill:#1385bd"/><path d="M177.31413,6.11112v22.582h-1.86572V6.11112c0-1.33677-1.26438-2.74593-4.57628-2.74593-3.37113,0-4.57546,1.40916-4.63551,2.74593v22.582h-1.86654V6.11112c0-1.33677,1.32443-3.86635,6.502-3.86635C175.9897,2.24477,177.31413,4.77435,177.31413,6.11112Z" style="fill:#1385bd"/><path d="M204.10794,9.47155V21.50331c0,5.70821-7.82648,7.226-12.0408,7.226h-.90325V2.281h.90325C196.28146,2.281,204.10794,3.76252,204.10794,9.47155Zm-1.86654,0c0-3.10789-2.829-5.23932-7.70638-5.92621l-1.50459-.18016V27.60885l1.50459-.18016c4.87736-.6507,7.70638-2.81832,7.70638-5.92539Z" style="fill:#1385bd"/><rect x="93.17641" y="2.26633" width="4.29668" height="14.43119" style="fill:#1385bd"/><path d="M41.54493,8.1667a8.16656,8.16656,0,1,0-16.33312.00024c0,.12755.01334.25172.01915.37786V28.72927h1.56222V12.97648a8.13907,8.13907,0,0,0,13.20383-.0447V28.72927h1.56222V8.1667ZM33.37837,14.7324a6.56584,6.56584,0,1,1,6.56584-6.56545A6.573,6.573,0,0,1,33.37837,14.7324Z" style="fill:#1385bd"/><path d="M33.37837,3.94708a4.21947,4.21947,0,1,0,4.21947,4.21986A4.22458,4.22458,0,0,0,33.37837,3.94708Zm0,6.83823a2.61875,2.61875,0,1,1,2.61875-2.61836A2.62161,2.62161,0,0,1,33.37837,10.78531Z" style="fill:#1385bd"/><polygon points="150.812 1.744 148.87 5.107 146.928 8.47 150.812 8.47 150.812 1.744" style="fill:#1385bd"/></svg>