<svg xmlns="http://www.w3.org/2000/svg" viewBox="0 0 127.39854 18.15743"><path d="M57.19808,1.42372h3.26921v.69933H58.36312V9.72279h2.10417v.69933H58.36312v5.074c.03748.69933.63875,1.48853,2.10417,1.69186v.72141c-2.5175-.248-3.26921-1.62357-3.26921-2.39068Z" style="fill:#fff"/><path d="M0,15.72208V3.7918C0,2.16823,1.87876,1.55927,3.30669,1.40112v.69933C2.17964,2.25809,1.165,2.75461,1.165,3.7918V15.72208c.03748.83438.82667,1.73653,2.89336,1.73653,2.10468,0,2.89387-.90215,2.89387-1.73653V10.60235H4.84759V9.90353H8.1548v5.81855c0,.83438-.86467,2.43535-4.0964,2.43535C.86416,18.15743,0,16.55645,0,15.72208Z" style="fill:#fff"/><path d="M48.55344,3.837V17.932h-1.165V3.837c-.03748-.857-.78919-1.73653-2.89336-1.73653-2.0672,0-2.85639.90215-2.85639,1.73653V17.932H40.43612V3.837c0-.857-.78868-1.73653-2.85587-1.73653-2.10417,0-2.85587.90215-2.89336,1.73653V17.932h-1.165V3.837c0-.857.82667-2.43586,4.0584-2.43586a5.40428,5.40428,0,0,1,2.89387.67674l.56378.361.56327-.361A5.40428,5.40428,0,0,1,44.495,1.40112C47.68928,1.40112,48.55344,2.98,48.55344,3.837Z" style="fill:#fff"/><path d="M84.14248,3.837V17.932h-1.165V3.837c-.03748-.857-.78919-1.73653-2.89336-1.73653-2.06721,0-2.85639.90215-2.85639,1.73653V17.932H76.02517V3.837c0-.857-.78868-1.73653-2.85587-1.73653-2.10417,0-2.85587.90215-2.89336,1.73653V17.932h-1.165V3.837c0-.857.82667-2.43586,4.0584-2.43586a5.40428,5.40428,0,0,1,2.89387.67674l.56378.361.56327-.361a5.40428,5.40428,0,0,1,2.89387-.67674C83.27833,1.40112,84.14248,2.98,84.14248,3.837Z" style="fill:#fff"/><path d="M92.78712,6.659h1.165V17.932h-1.165V6.659Z" style="fill:#fff"/><path d="M110.67458,3.81439v14.095h-1.16453V3.81439c0-.83438-.78919-1.71393-2.85639-1.71393-2.10417,0-2.85587.87956-2.89336,1.71393v14.095h-1.165V3.81439c0-.83438.82667-2.41327,4.0584-2.41327C109.84791,1.40112,110.67458,2.98,110.67458,3.81439Z" style="fill:#fff"/><path d="M127.39854,5.91188v7.50989c0,3.56291-4.88507,4.51025-7.51554,4.51025h-.56378V1.42372h.56378C122.51347,1.42372,127.39854,2.34846,127.39854,5.91188Zm-1.165,0c0-1.93986-1.76579-3.27024-4.81011-3.699l-.93912-.11245V17.23268l.93912-.11245c3.04431-.40615,4.81011-1.75912,4.81011-3.69846Z" style="fill:#fff"/><rect x="58.15814" y="1.41458" width="2.68187" height="9.00755" style="fill:#fff"/><path d="M25.9312,5.09743a5.09734,5.09734,0,1,0-10.19468.00015c0,.07961.00832.15712.012.23585V17.932h.9751V8.09956a5.08018,5.08018,0,0,0,8.24147-.0279V17.932h.9751V5.09743ZM20.83386,9.19556a4.09822,4.09822,0,1,1,4.09822-4.098A4.10268,4.10268,0,0,1,20.83386,9.19556Z" style="fill:#fff"/><path d="M20.83386,2.46366a2.63368,2.63368,0,1,0,2.63368,2.63392A2.63687,2.63687,0,0,0,20.83386,2.46366Zm0,4.26823a1.63455,1.63455,0,1,1,1.63455-1.63431A1.63634,1.63634,0,0,1,20.83386,6.73189Z" style="fill:#fff"/><polygon points="94.132 1.088 92.921 3.188 91.709 5.287 94.132 5.287 94.132 1.088" style="fill:#fff"/></svg>