<svg xmlns="http://www.w3.org/2000/svg" viewBox="0 0 129.02622 37.46161"><title>遊戲思維</title><path d="M65.07755,32.37746a16.77456,16.77456,0,0,1-.94514,3.15849,11.91294,11.91294,0,0,1,1.065.69351,6.60622,6.60622,0,0,0,3.43315.59806c1.7104,0,3.56464-.09545,4.95232-.21493.0012.21614.012.42845,0,.596-.83735.04739-3.4692.13356-4.96434.13356A6.62852,6.62852,0,0,1,65.01781,36.66c-.49059-.287-1.09469-.95571-1.23216-.71753-.425.73636-.4406.8766-.84936,1.51917l-.59925-.50319a20.09549,20.09549,0,0,0,1.254-1.68121,11.04044,11.04044,0,0,0,.87642-2.48124H63.10383c.311-.71753.69384-1.78216.99287-2.7273l-1.35163.131v-.669h2.05749c-.28735.87306-.67014,1.93768-.98085,2.75133h.849l.1078-.024ZM63.92916,28.729a18.95742,18.95742,0,0,0-.78506-1.83527l.68928-.19852c.19156.61007.45455,1.37566.58638,1.87827Zm3.15815,2.04581a7.36245,7.36245,0,0,1-1.45943,4.85654,3.05964,3.05964,0,0,0-.41884-.33507,6.77957,6.77957,0,0,0,1.364-4.61758V28.76509H65.34087v-.51462h2.10521c-.03626-.7692-.06252-.83106-.10835-1.50273h.757c-.05878.782-.03056,1.04474-.05061,1.50273h1.41171v.51462H67.08732v1.49514H69.037v.287c-.10746,3.553-.19123,4.66564-.45455,5.02408a.70367.70367,0,0,1-.574.27567,9.17121,9.17121,0,0,1-.95716-.012,1.21888,1.21888,0,0,0-.14351-.50261c.41884.036.77761.036.92111.036.15552,0,.23929-.012.311-.13149.16754-.23962.27533-1.34029.35877-4.46206Zm3.19386-2.30879a5.57989,5.57989,0,0,1-.76479,1.3139c-.18359-.111-.28417-.14314-.41567-.21456a13.91469,13.91469,0,0,0,1.26422-3.02568l.5263.10813a9.15676,9.15676,0,0,1-.39481,1.30358H73.4153v.51462ZM71.7286,35.2249c0,.311-.05974.46656-.299.55a1.53989,1.53989,0,0,1-.90113.14024,1.73284,1.73284,0,0,0-.19156-.50194,3.15582,3.15582,0,0,0,.69789-.03277c.14351,0,.17955-.036.17955-.15552V32.844h-1.8182v-.50261h1.8182v-1.1841a6.09368,6.09368,0,0,0,1.13637-.95716h-2.488v-.47791H72.7812l.1078-.036.35877.251a7.71422,7.71422,0,0,1-1.51917,1.41171v.99253H73.475V32.844H71.7286Z" style="fill:#fff"/><path d="M82.34644,29.07613V31.995a13.53486,13.53486,0,0,1-.81365,5.21564,1.78715,1.78715,0,0,0-.45455-.287,12.42017,12.42017,0,0,0,.75391-4.92863V28.60957h2.35652V26.57577H84.739v.82567h2.57178V27.856H84.739v.75358h2.4523l.10746-.024.33507.10746a10.128,10.128,0,0,1-.47858,1.59126l-.44254-.14351a10.8729,10.8729,0,0,0,.299-1.06462Zm4.22277,6.11273c-.17955.39448-.3828.861-.57436,1.23216l1.37566-.14351v.46656c-1.73443.1909-3.51692.39448-4.78479.514l-.08377-.50194c.44254-.036.99287-.09612,1.59092-.14351a11.48056,11.48056,0,0,0-.45455-1.42372l.44254-.10746a9.30389,9.30389,0,0,1,.49059,1.48313l.9091-.09612a11.2908,11.2908,0,0,0,.574-1.411Zm-1.73476-6.06534v.82567l1.352-.14351.05974.40649-1.41171.15552v.43119c0,.299.036.35843.2513.35843h1.30391a3.74427,3.74427,0,0,0,.64611-.036c.01168.13216.03571.28768.04772.41917a4.97871,4.97871,0,0,1-.66981.03538H85.002c-.56235,0-.68182-.20291-.68182-.789v-.37112l-1.56689.16754-.06007-.41851,1.627-.16754v-.87372ZM87.538,32.545H82.801v-.45455H87.538Zm-4.39031,2.44028V33.14305h3.89972v1.84223Zm.49059-.40649h2.89483V33.55021H83.63833Zm8.302-3.3614a12.71072,12.71072,0,0,1-1.938,3.80393c.275,1.08865.61007,1.73476,1.02858,1.75813.22727,0,.40683-.71753.50261-1.93768a1.84554,1.84554,0,0,0,.44254.287c-.20325,1.78282-.5263,2.32081-.94514,2.30879-.63377-.012-1.11235-.71753-1.44742-1.89029a8.05432,8.05432,0,0,1-1.69872,1.53119,1.8578,1.8578,0,0,0-.44254-.41851A7.43476,7.43476,0,0,0,89.416,34.91386a30.06719,30.06719,0,0,1-.55-4.31856l-1.1604.14351-.07175-.51462,1.20813-.15552c-.07175-1.07664-.1078-2.2367-.14351-3.43282h.53832c.0237,1.17208.05974,2.30879.11948,3.3614l2.65588-.32306.05974.50261-2.67957.3344a35.98439,35.98439,0,0,0,.45455,3.81595,11.73951,11.73951,0,0,0,1.627-3.34938Zm-.43085-2.11723a22.99991,22.99991,0,0,0-1.48346-2.02178l.472-.25993c.50685.6332,1.32875,1.46337,1.61222,1.91047Z" style="fill:#fff"/><path d="M99.87864,36.57654a8.75009,8.75009,0,0,0,1.34-2.89483l.50227.17955a9.89872,9.89872,0,0,1-1.32794,2.99028Zm9.36666-4.24647H101.003V27.11443h8.2423Zm-7.68-2.87147H104.879V27.65241h-3.31367Zm0,2.34484H104.879V29.97322h-3.31367Zm5.1796,4.80915c.6341,0,.72988-.21559.78962-1.65133a1.67294,1.67294,0,0,0,.55033.22761c-.09578,1.59059-.299,1.96171-1.31592,1.96171h-2.65554c-1.12469,0-1.4354-.17955-1.4354-.93313V33.5976h.574v2.61983c0,.32306.13149.39514.86137.39514Zm-.41851-1.73476a13.28639,13.28639,0,0,0-2.58379-1.78282l.3828-.35843a12.69619,12.69619,0,0,1,2.59581,1.73476Zm2.35652-7.2254h-3.2536v1.80618h3.2536Zm0,2.32081h-3.2536v1.83021h3.2536Zm-.024,3.54095a13.33786,13.33786,0,0,1,1.77047,2.96625l-.55033.25164a12.55724,12.55724,0,0,0-1.73443-3.003Z" style="fill:#fff"/><path d="M119.45632,34.2317a18.94952,18.94952,0,0,1-.65813,2.87081c-.10746-.04739-.34675-.14351-.47858-.1909a14.173,14.173,0,0,0,.6341-2.77536Zm2.39223-3.21789a12.71844,12.71844,0,0,1,.86137,2.34484l-.49026.17955c-.036-.17955-.09578-.39514-.16754-.6341a16.95115,16.95115,0,0,0-3.45718.6341c-.036-.13216-.11981-.40716-.17955-.55067.21526-.04739.49059-.37045.83735-.813a18.52292,18.52292,0,0,0,1.13637-1.59126,8.73257,8.73257,0,0,0-1.86592.299,4.88954,4.88954,0,0,0-.17955-.55c.17955-.036.39481-.2997.64611-.67014a17.14572,17.14572,0,0,0,1.66268-3.07438l.5263.22761a19.97557,19.97557,0,0,1-1.98573,3.39677l1.53118-.13149c.32306-.526.64611-1.10066.92111-1.66268l.51429.263a27.25761,27.25761,0,0,1-2.787,4.127l2.52405-.34642a9.86141,9.86141,0,0,0-.51462-1.30424Zm-1.1841,3.0864a24.4039,24.4039,0,0,1,.33507,2.55976l-.49059.10813a23.35054,23.35054,0,0,0-.299-2.57244Zm1.2919-.263a16.15235,16.15235,0,0,1,.74156,2.33215l-.46656.14351a21.06135,21.06135,0,0,0-.70552-2.34417Zm7.06988,2.66723h-4.91661v.9091h-.53832V30.09269a11.41117,11.41117,0,0,1-.84936,1.20813,3.05958,3.05958,0,0,0-.34675-.45455,12.61329,12.61329,0,0,0,2.15294-4.175l.57436.14417a19.68288,19.68288,0,0,1-.80164,1.93768h4.55785v.538h-2.201V31.0859h1.97372v.538h-1.97372v1.84223h1.99775v.53865h-1.99775v1.96171h2.36853Zm-2.90685-7.21339h-2.00976V31.0859h2.00976Zm0,2.33282h-2.00976v1.84223h2.00976Zm-2.00976,4.34259h2.00976V34.00476h-2.00976Zm2.3445-7.441a13.29626,13.29626,0,0,0-.81332-1.67469l.49026-.1909a11.66927,11.66927,0,0,1,.82567,1.63865Z" style="fill:#fff"/><path d="M57.19808,1.42372h3.26921v.69933H58.36312V9.72279h2.10417v.69933H58.36312v5.074c.03748.69933.63875,1.48853,2.10417,1.69186v.72141c-2.5175-.248-3.26921-1.62357-3.26921-2.39068Z" style="fill:#fff"/><path d="M0,15.72208V3.7918C0,2.16823,1.87876,1.55927,3.30669,1.40112v.69933C2.17964,2.25809,1.165,2.75461,1.165,3.7918V15.72208c.03748.83438.82667,1.73653,2.89336,1.73653,2.10468,0,2.89387-.90215,2.89387-1.73653V10.60235H4.84759V9.90353H8.1548v5.81855c0,.83438-.86467,2.43535-4.0964,2.43535C.86416,18.15743,0,16.55645,0,15.72208Z" style="fill:#fff"/><path d="M48.55344,3.837V17.932h-1.165V3.837c-.03748-.857-.78919-1.73653-2.89336-1.73653-2.0672,0-2.85639.90215-2.85639,1.73653V17.932H40.43612V3.837c0-.857-.78868-1.73653-2.85587-1.73653-2.10417,0-2.85587.90215-2.89336,1.73653V17.932h-1.165V3.837c0-.857.82667-2.43586,4.0584-2.43586a5.40428,5.40428,0,0,1,2.89387.67674l.56378.361.56327-.361A5.40428,5.40428,0,0,1,44.495,1.40112C47.68928,1.40112,48.55344,2.98,48.55344,3.837Z" style="fill:#fff"/><path d="M84.14248,3.837V17.932h-1.165V3.837c-.03748-.857-.78919-1.73653-2.89336-1.73653-2.06721,0-2.85639.90215-2.85639,1.73653V17.932H76.02517V3.837c0-.857-.78868-1.73653-2.85587-1.73653-2.10417,0-2.85587.90215-2.89336,1.73653V17.932h-1.165V3.837c0-.857.82667-2.43586,4.0584-2.43586a5.40428,5.40428,0,0,1,2.89387.67674l.56378.361.56327-.361a5.40428,5.40428,0,0,1,2.89387-.67674C83.27833,1.40112,84.14248,2.98,84.14248,3.837Z" style="fill:#fff"/><path d="M92.78712,6.659h1.165V17.932h-1.165V6.659Z" style="fill:#fff"/><path d="M110.67458,3.81439v14.095h-1.16453V3.81439c0-.83438-.78919-1.71393-2.85639-1.71393-2.10417,0-2.85587.87956-2.89336,1.71393v14.095h-1.165V3.81439c0-.83438.82667-2.41327,4.0584-2.41327C109.84791,1.40112,110.67458,2.98,110.67458,3.81439Z" style="fill:#fff"/><path d="M127.39854,5.91188v7.50989c0,3.56291-4.88507,4.51025-7.51554,4.51025h-.56378V1.42372h.56378C122.51347,1.42372,127.39854,2.34846,127.39854,5.91188Zm-1.165,0c0-1.93986-1.76579-3.27024-4.81011-3.699l-.93912-.11245V17.23268l.93912-.11245c3.04431-.40615,4.81011-1.75912,4.81011-3.69846Z" style="fill:#fff"/><rect x="58.15814" y="1.41458" width="2.68187" height="9.00755" style="fill:#fff"/><path d="M25.9312,5.09743a5.09734,5.09734,0,1,0-10.19468.00015c0,.07961.00832.15712.012.23585V17.932h.9751V8.09956a5.08018,5.08018,0,0,0,8.24147-.0279V17.932h.9751V5.09743ZM20.83386,9.19556a4.09822,4.09822,0,1,1,4.09822-4.098A4.10268,4.10268,0,0,1,20.83386,9.19556Z" style="fill:#fff"/><path d="M20.83386,2.46366a2.63368,2.63368,0,1,0,2.63368,2.63392A2.63687,2.63687,0,0,0,20.83386,2.46366Zm0,4.26823a1.63455,1.63455,0,1,1,1.63455-1.63431A1.63634,1.63634,0,0,1,20.83386,6.73189Z" style="fill:#fff"/><polygon points="94.132 1.088 92.921 3.188 91.709 5.287 94.132 5.287 94.132 1.088" style="fill:#fff"/></svg>