<svg xmlns="http://www.w3.org/2000/svg" viewBox="0 0 15.61989 30.75781"><title>icon_scroll</title><path d="M7.80994,1.70306A6.06764,6.06764,0,0,0,3.45752,3.55855,6.43087,6.43087,0,0,0,1.65459,8.03838l.0002.05134v8.51545A6.372,6.372,0,0,0,4.73017,22.0984a6.00382,6.00382,0,0,0,6.15957,0,6.372,6.372,0,0,0,3.07538-5.49323V8.08968A6.43383,6.43383,0,0,0,12.19746,3.595a6.07058,6.07058,0,0,0-4.3377-1.89169Zm.82729,7.80015H6.98259V4.394H8.63718Z" style="fill:none"/><path d="M7.80994,0a7.69873,7.69873,0,0,0-5.5224,2.35433A8.15961,8.15961,0,0,0,0,8.03843l.00016.05126v8.51545a8.08491,8.08491,0,0,0,3.90241,6.969,7.61776,7.61776,0,0,0,7.81474,0,8.08491,8.08491,0,0,0,3.90242-6.969V8.08968a7.93018,7.93018,0,0,0-7.76-8.08952Zm6.15517,16.60513a6.372,6.372,0,0,1-3.07538,5.49323,6.00383,6.00383,0,0,1-6.15957,0,6.372,6.372,0,0,1-3.07538-5.49323V8.08968A6.372,6.372,0,0,1,4.73016,2.59645a6.00383,6.00383,0,0,1,6.15957,0,6.372,6.372,0,0,1,3.07538,5.49323Z" style="fill:#fdfeff"/><rect x="6.98264" y="4.37694" width="1.65462" height="5.1263" style="fill:#fcfcfc"/><polygon points="7.81 29.549 6.04 27.727 5.444 28.322 7.81 30.758 10.176 28.322 9.58 27.727 7.81 29.549" style="fill:#fdfeff"/></svg>